<svg width="40" height="44" viewBox="0 0 40 44" fill="none" xmlns="http://www.w3.org/2000/svg">
<path d="M29.3133 0C36.1778 0 40 3.916 40 10.626V33.352C40 40.172 36.1778 44 29.3133 44H10.6889C3.93333 44 0 40.172 0 33.352V10.626C0 3.916 3.93333 0 10.6889 0H29.3133ZM11.2889 30.228C10.6222 30.162 9.97778 30.47 9.62222 31.042C9.26667 31.592 9.26667 32.318 9.62222 32.89C9.97778 33.44 10.6222 33.77 11.2889 33.682H28.7111C29.5978 33.594 30.2667 32.8438 30.2667 31.966C30.2667 31.064 29.5978 30.316 28.7111 30.228H11.2889ZM28.7111 20.1938H11.2889C10.3311 20.1938 9.55556 20.966 9.55556 21.912C9.55556 22.858 10.3311 23.628 11.2889 23.628H28.7111C29.6667 23.628 30.4444 22.858 30.4444 21.912C30.4444 20.966 29.6667 20.1938 28.7111 20.1938ZM17.9311 10.23H11.2889V10.252C10.3311 10.252 9.55556 11.022 9.55556 11.968C9.55556 12.914 10.3311 13.684 11.2889 13.684H17.9311C18.8889 13.684 19.6667 12.914 19.6667 11.9438C19.6667 11 18.8889 10.23 17.9311 10.23Z" fill="black"/>
</svg>
