<svg width="23" height="24" viewBox="0 0 23 24" fill="none" xmlns="http://www.w3.org/2000/svg">
<path d="M12.3682 0C13.2837 0 14.1125 0.504 14.5703 1.248C14.7929 1.608 14.9414 2.052 14.9043 2.52C14.8795 2.88 14.9909 3.24 15.1888 3.576C15.8197 4.596 17.2177 4.98 18.3063 4.404C19.5311 3.708 21.0774 4.128 21.7826 5.316L22.6115 6.732C23.329 7.92 22.9331 9.444 21.696 10.128C20.6445 10.74 20.2733 12.096 20.9043 13.128C21.1022 13.452 21.3249 13.728 21.6713 13.896C22.1042 14.124 22.4383 14.484 22.6733 14.844C23.131 15.588 23.0939 16.5 22.6486 17.304L21.7826 18.744C21.3249 19.512 20.4713 19.992 19.5929 19.992C19.1599 19.992 18.6775 19.872 18.2816 19.632C17.9599 19.428 17.5888 19.356 17.1929 19.356C15.9682 19.356 14.9414 20.352 14.9043 21.54C14.9043 22.92 13.7662 24 12.3435 24H10.661C9.22597 24 8.08783 22.92 8.08783 21.54C8.06309 20.352 7.03629 19.356 5.81156 19.356C5.40331 19.356 5.03218 19.428 4.7229 19.632C4.32703 19.872 3.83219 19.992 3.41157 19.992C2.52085 19.992 1.66725 19.512 1.20952 18.744L0.355919 17.304C-0.101811 16.524 -0.126553 15.588 0.331177 14.844C0.529114 14.484 0.900246 14.124 1.32086 13.896C1.66725 13.728 1.88993 13.452 2.10024 13.128C2.71879 12.096 2.34766 10.74 1.29612 10.128C0.0713843 9.444 -0.32449 7.92 0.380661 6.732L1.20952 5.316C1.92704 4.128 3.46106 3.708 4.69816 4.404C5.77444 4.98 7.17237 4.596 7.8033 3.576C8.00124 3.24 8.11258 2.88 8.08783 2.52C8.06309 2.052 8.19917 1.608 8.43422 1.248C8.89195 0.504 9.72081 0.024 10.6239 0H12.3682ZM11.5146 8.616C9.57236 8.616 8.00124 10.128 8.00124 12.012C8.00124 13.896 9.57236 15.396 11.5146 15.396C13.4569 15.396 14.9909 13.896 14.9909 12.012C14.9909 10.128 13.4569 8.616 11.5146 8.616Z" fill="#3468FC"/>
</svg>
