<svg width="22" height="24" viewBox="0 0 22 24" fill="none" xmlns="http://www.w3.org/2000/svg">
<path d="M15.4607 2.70629e-06C15.9796 -0.00119397 16.3899 0.394608 16.3911 0.922343L16.3923 1.82189C19.7591 2.08096 21.9831 4.33343 21.9867 7.7877L22 17.8986C22.0048 21.6647 19.595 23.982 15.7322 23.988L6.29675 24C2.45813 24.0048 0.0181172 21.6324 0.0132903 17.8555L8.10015e-06 7.86326C-0.00481071 4.38621 2.14076 2.13973 5.50755 1.83629L5.50634 0.936736C5.50514 0.409 5.90336 0.0119994 6.43432 0.0119994C6.96529 0.0108 7.36351 0.406602 7.36471 0.934337L7.36592 1.77392L14.5339 1.76432L14.5327 0.924742C14.5315 0.397006 14.9297 0.00120482 15.4607 2.70629e-06ZM15.953 17.0303H15.941C15.3859 17.0435 14.9406 17.5004 14.9527 18.0522C14.9539 18.6039 15.4016 19.0585 15.9567 19.0704C16.5226 19.0692 16.9812 18.6123 16.98 18.0486C16.98 17.4848 16.5202 17.0303 15.953 17.0303ZM6.00955 17.0315C5.45445 17.0555 5.02003 17.5124 5.02123 18.0642C5.04658 18.6159 5.50514 19.0477 6.06024 19.0225C6.60447 18.9985 7.03769 18.5415 7.01235 17.9898C7.00028 17.4501 6.55258 17.0303 6.00955 17.0315ZM10.9813 17.0255C10.4262 17.0507 9.99298 17.5064 9.99298 18.0582C10.0183 18.6099 10.4769 19.0405 11.032 19.0165C11.575 18.9913 12.0094 18.5355 11.9841 17.9826C11.972 17.4441 11.5243 17.0243 10.9813 17.0255ZM6.00352 12.7136C5.44842 12.7376 5.0152 13.1946 5.01641 13.7463C5.04054 14.298 5.50031 14.7298 6.05541 14.7046C6.59844 14.6806 7.03166 14.2237 7.00631 13.672C6.99425 13.1322 6.54776 12.7124 6.00352 12.7136ZM10.9765 12.6717C10.4214 12.6956 9.98695 13.1526 9.98815 13.7043C10.0123 14.2561 10.4721 14.6866 11.0272 14.6627C11.5702 14.6375 12.0034 14.1817 11.9793 13.63C11.966 13.0902 11.5195 12.6705 10.9765 12.6717ZM15.9482 12.6776C15.3931 12.6896 14.9587 13.1334 14.9599 13.6851V13.6983C14.972 14.2501 15.4305 14.6687 15.9868 14.6567C16.5299 14.6435 16.9631 14.1865 16.951 13.6348C16.9257 13.107 16.49 12.6765 15.9482 12.6776ZM14.5363 3.6114L7.36833 3.62099L7.36954 4.5913C7.36954 5.10824 6.97253 5.51604 6.44156 5.51604C5.9106 5.51724 5.51117 5.11064 5.51117 4.5937L5.50996 3.67017C3.15683 3.90165 1.85477 5.25937 1.85838 7.86087L1.85959 8.23388L20.1295 8.20989V7.7901C20.0777 5.21139 18.7599 3.85847 16.3947 3.65697L16.3959 4.58051C16.3959 5.09625 15.9868 5.50525 15.4679 5.50525C14.937 5.50645 14.5375 5.09865 14.5375 4.58291L14.5363 3.6114Z" fill="#3468FC"/>
</svg>
