<svg width="40" height="48" viewBox="0 0 40 48" fill="none" xmlns="http://www.w3.org/2000/svg">
<path d="M22.947 0C23.5527 0 24.0186 0.504 24.0186 1.104V8.832C24.0186 13.224 27.5364 16.824 31.7997 16.848C33.5702 16.848 34.968 16.872 36.0396 16.872C36.7618 16.872 37.9499 16.848 38.9517 16.848C39.5341 16.848 40 17.328 40 17.928V37.224C40 43.176 35.3174 48 29.5166 48H10.9959C4.93885 48 0 42.936 0 36.696V10.824C0 4.872 4.70588 0 10.5067 0H22.947ZM19.569 18.648C18.6139 18.648 17.8218 19.44 17.8218 20.424V24.576H13.8148C12.8596 24.576 12.0676 25.368 12.0676 26.376C12.0676 27.36 12.8596 28.152 13.8148 28.152H17.8218V32.304C17.8218 33.288 18.6139 34.08 19.569 34.08C20.5242 34.08 21.293 33.288 21.293 32.304V28.152H25.3232C26.2784 28.152 27.0705 27.36 27.0705 26.376C27.0705 25.368 26.2784 24.576 25.3232 24.576H21.293V20.424C21.293 19.44 20.5242 18.648 19.569 18.648ZM27.4108 2.17488C27.4108 1.14048 28.6292 0.62688 29.3258 1.37328C31.8441 4.07088 36.2448 8.78688 38.705 11.4221C39.3852 12.1493 38.8867 13.3565 37.9059 13.3589C35.9909 13.3661 33.7335 13.3589 32.1097 13.3421C29.5331 13.3421 27.4108 11.1557 27.4108 8.50128V2.17488Z" fill="black"/>
</svg>
