<svg width="24" height="24" viewBox="0 0 24 24" fill="none" xmlns="http://www.w3.org/2000/svg">
<path d="M12 24C18.612 24 24 18.624 24 12C24 5.388 18.612 0 12 0C5.376 0 0 5.388 0 12C0 18.624 5.376 24 12 24ZM8.472 14.364C8.124 14.724 7.548 14.724 7.2 14.376C6.84 14.016 6.84 13.452 7.2 13.104L11.364 8.916C11.532 8.748 11.76 8.652 12 8.652C12.24 8.652 12.468 8.748 12.636 8.916L16.8 13.104C16.98 13.272 17.064 13.5 17.064 13.728C17.064 13.968 16.98 14.196 16.8 14.376C16.44 14.724 15.876 14.724 15.528 14.364L12 10.824L8.472 14.364Z" fill="black"/>
</svg>
