<svg width="40" height="40" viewBox="0 0 40 40" fill="none" xmlns="http://www.w3.org/2000/svg">
<path d="M28.68 0C35.46 0 40 4.758 40 11.838V28.178C40 35.24 35.46 40 28.68 40H11.34C4.56 40 0 35.24 0 28.178V11.838C0 4.758 4.56 0 11.34 0H28.68ZM19.3 9.838C18.48 9.838 17.8 10.52 17.8 11.338V21.44C17.8 21.96 18.08 22.46 18.54 22.72L26.38 27.4C26.62 27.56 26.9 27.62 27.16 27.62C27.66 27.62 28.16 27.36 28.44 26.88C28.88 26.178 28.64 25.258 27.92 24.82L20.8 20.58V11.338C20.8 10.52 20.14 9.838 19.3 9.838Z" fill="black"/>
</svg>
