<svg width="25" height="18" viewBox="0 0 25 18" fill="none" xmlns="http://www.w3.org/2000/svg">
<path d="M6.71169 1V17M15.3006 1V17M23.8896 1V17M10.3927 1.66667V16.3333C10.3927 16.5101 10.4573 16.6797 10.5724 16.8047C10.6874 16.9298 10.8435 17 11.0062 17C11.1689 17 11.3249 16.9298 11.44 16.8047C11.555 16.6797 11.6197 16.5101 11.6197 16.3333V1.66667C11.6197 1.48986 11.555 1.32029 11.44 1.19526C11.3249 1.07024 11.1689 1 11.0062 1C10.8435 1 10.6874 1.07024 10.5724 1.19526C10.4573 1.32029 10.3927 1.48986 10.3927 1.66667ZM18.9816 1.66667V16.3333C18.9816 16.5101 19.0463 16.6797 19.1613 16.8047C19.2764 16.9298 19.4324 17 19.5951 17C19.7578 17 19.9139 16.9298 20.0289 16.8047C20.144 16.6797 20.2086 16.5101 20.2086 16.3333V1.66667C20.2086 1.48986 20.144 1.32029 20.0289 1.19526C19.9139 1.07024 19.7578 1 19.5951 1C19.4324 1 19.2764 1.07024 19.1613 1.19526C19.0463 1.32029 18.9816 1.48986 18.9816 1.66667ZM2.41721 1C2.2545 1 2.09845 1.07024 1.9834 1.19526C1.86835 1.32029 1.80371 1.48986 1.80371 1.66667V16.3333C1.80371 16.5101 1.86835 16.6797 1.9834 16.8047C2.09845 16.9298 2.2545 17 2.41721 17C2.57992 17 2.73596 16.9298 2.85102 16.8047C2.96607 16.6797 3.0307 16.5101 3.0307 16.3333V1.66667C3.0307 1.48986 2.96607 1.32029 2.85102 1.19526C2.73596 1.07024 2.57992 1 2.41721 1Z" stroke="#757575" stroke-width="2" stroke-linecap="round" stroke-linejoin="round"/>
</svg>
