<svg width="26" height="18" viewBox="0 0 26 18" fill="none" xmlns="http://www.w3.org/2000/svg">
<path d="M6.33333 1V17M15.6667 1V17M25 1V17M10.3333 1.66667V16.3333C10.3333 16.5101 10.4036 16.6797 10.5286 16.8047C10.6536 16.9298 10.8232 17 11 17C11.1768 17 11.3464 16.9298 11.4714 16.8047C11.5964 16.6797 11.6667 16.5101 11.6667 16.3333V1.66667C11.6667 1.48986 11.5964 1.32029 11.4714 1.19526C11.3464 1.07024 11.1768 1 11 1C10.8232 1 10.6536 1.07024 10.5286 1.19526C10.4036 1.32029 10.3333 1.48986 10.3333 1.66667ZM19.6667 1.66667V16.3333C19.6667 16.5101 19.7369 16.6797 19.8619 16.8047C19.987 16.9298 20.1565 17 20.3333 17C20.5101 17 20.6797 16.9298 20.8047 16.8047C20.9298 16.6797 21 16.5101 21 16.3333V1.66667C21 1.48986 20.9298 1.32029 20.8047 1.19526C20.6797 1.07024 20.5101 1 20.3333 1C20.1565 1 19.987 1.07024 19.8619 1.19526C19.7369 1.32029 19.6667 1.48986 19.6667 1.66667ZM1.66667 1C1.48986 1 1.32029 1.07024 1.19526 1.19526C1.07024 1.32029 1 1.48986 1 1.66667V16.3333C1 16.5101 1.07024 16.6797 1.19526 16.8047C1.32029 16.9298 1.48986 17 1.66667 17C1.84348 17 2.01305 16.9298 2.13807 16.8047C2.2631 16.6797 2.33333 16.5101 2.33333 16.3333V1.66667C2.33333 1.48986 2.2631 1.32029 2.13807 1.19526C2.01305 1.07024 1.84348 1 1.66667 1Z" stroke="black" stroke-width="2" stroke-linecap="round" stroke-linejoin="round"/>
</svg>
