<svg width="22" height="22" viewBox="0 0 22 22" fill="none" xmlns="http://www.w3.org/2000/svg">
<path d="M16.1262 9.91821e-05C19.8662 9.91821e-05 22.0002 2.1121 22.0002 5.8631V16.1371C22.0002 19.8661 19.8772 22.0001 16.1372 22.0001H5.86324C2.11224 22.0001 0.000244141 19.8661 0.000244141 16.1371V5.8631C0.000244141 2.1121 2.11224 9.91821e-05 5.86324 9.91821e-05H16.1262ZM10.9892 6.0611C10.4832 6.0611 10.0762 6.4681 10.0762 6.9741V10.0761H6.96324C6.72124 10.0761 6.49024 10.1751 6.31424 10.3401C6.14924 10.5161 6.05024 10.746 6.05024 10.9891C6.05024 11.4951 6.45724 11.9021 6.96324 11.9131H10.0762V15.0261C10.0762 15.5321 10.4832 15.9391 10.9892 15.9391C11.4952 15.9391 11.9022 15.5321 11.9022 15.0261V11.9131H15.0262C15.5322 11.9021 15.9392 11.4951 15.9392 10.9891C15.9392 10.4831 15.5322 10.0761 15.0262 10.0761H11.9022V6.9741C11.9022 6.4681 11.4952 6.0611 10.9892 6.0611Z" fill="black"/>
</svg>
