<svg width="40" height="40" viewBox="0 0 40 40" fill="none" xmlns="http://www.w3.org/2000/svg">
<path d="M28.68 0C35.46 0 40 4.76 40 11.84V28.182C40 35.242 35.46 40 28.68 40H11.34C4.56 40 0 35.242 0 28.182V11.84C0 4.76 4.56 0 11.34 0H28.68ZM19.98 16.962C19.02 16.962 18.24 17.76 18.24 18.722V27.562C18.24 28.522 19.02 29.302 19.98 29.302C20.96 29.302 21.74 28.522 21.74 27.562V18.722C21.74 17.76 20.96 16.962 19.98 16.962ZM20.02 10.622C19.04 10.622 18.26 11.402 18.26 12.382C18.26 13.34 19.04 14.122 19.98 14.122C20.98 14.122 21.76 13.34 21.76 12.382C21.76 11.402 20.98 10.622 20.02 10.622Z" fill="black"/>
</svg>
