<svg width="40" height="48" viewBox="0 0 40 48" fill="none" xmlns="http://www.w3.org/2000/svg">
<path d="M22.947 0C23.5294 0 24.0186 0.504 24.0186 1.104V8.832C24.0186 13.224 27.5364 16.824 31.7997 16.848C33.5469 16.848 34.968 16.872 36.0163 16.872C36.7385 16.872 37.9499 16.848 38.9284 16.848C39.5341 16.848 40 17.328 40 17.928V37.224C40 43.176 35.3174 48 29.5166 48H10.9959C4.91555 48 0 42.936 0 36.696V10.824C0 4.872 4.70588 0 10.5067 0H22.947ZM16.6803 20.928C16.0047 20.208 14.9097 20.208 14.2341 20.928C13.5585 21.624 13.5585 22.752 14.2341 23.448L17.0763 26.376L14.2341 29.304C13.5585 30 13.5585 31.128 14.2341 31.824C14.5603 32.184 15.0029 32.352 15.4455 32.352C15.8882 32.352 16.3541 32.184 16.6803 31.824L19.5224 28.896L22.3646 31.824C22.714 32.184 23.1567 32.352 23.5993 32.352C24.0419 32.352 24.4846 32.184 24.834 31.824C25.5096 31.128 25.5096 30 24.834 29.304L21.9918 26.376L24.834 23.448C25.5096 22.752 25.5096 21.624 24.834 20.928C24.1584 20.208 23.0402 20.208 22.3646 20.928L19.5224 23.856L16.6803 20.928ZM27.4029 2.17488C27.4029 1.14048 28.6213 0.62688 29.3156 1.37328C31.8362 4.07088 36.2369 8.78688 38.697 11.4221C39.375 12.1493 38.8787 13.3565 37.8956 13.3589C35.9807 13.3661 33.7256 13.3589 32.1018 13.3421C29.5252 13.3421 27.4029 11.1557 27.4029 8.50128V2.17488Z" fill="black"/>
</svg>
