<svg width="40" height="34" viewBox="0 0 40 34" fill="none" xmlns="http://www.w3.org/2000/svg">
<path d="M34.3407 0.428261C34.9262 -0.142754 35.8434 -0.142754 36.4093 0.428261C36.9947 0.999276 36.9947 1.9444 36.4093 2.51542L32.8576 6.09903C35.6872 8.69813 38.0876 12.203 39.8829 16.4167C40.039 16.7908 40.039 17.224 39.8829 17.5784C35.7068 27.3841 28.2716 33.2518 19.9974 33.2518H19.9778C16.2115 33.2518 12.6013 32.0113 9.42036 29.7469L5.6345 33.5668C5.34178 33.8622 4.971 34 4.60022 34C4.22943 34 3.83914 33.8622 3.56593 33.5668C3.07806 33.0746 3 32.287 3.3903 31.7159L3.44884 31.6372L32.3112 2.51542C32.3502 2.47604 32.3892 2.43666 32.4088 2.39728C32.4478 2.3579 32.4868 2.31852 32.5063 2.27914L34.3407 0.428261ZM20.0026 0.770673C22.7932 0.770673 25.5058 1.44014 28.0037 2.70031L21.4858 9.27683C21.0174 9.19807 20.51 9.139 20.0026 9.139C15.6899 9.139 12.1967 12.6635 12.1967 17.0151C12.1967 17.527 12.2553 18.039 12.3333 18.5115L5.11287 25.7969C3.16139 23.5128 1.46361 20.7562 0.117089 17.5861C-0.0390295 17.2317 -0.0390295 16.7985 0.117089 16.4244C4.29325 6.61865 11.7284 0.770673 19.9831 0.770673H20.0026ZM26.4372 12.5771L24.3101 14.7233C24.6614 15.3928 24.8565 16.1804 24.8565 17.0074C24.8565 19.7049 22.6709 21.9102 19.9974 21.9102C19.1777 21.9102 18.3972 21.7133 17.7337 21.3589L15.6065 23.5051C16.8555 24.3518 18.3776 24.8638 19.9974 24.8638C24.2906 24.8638 27.7838 21.3392 27.7838 17.0074C27.7838 15.3731 27.2764 13.8373 26.4372 12.5771Z" fill="black"/>
</svg>
