<svg width="48" height="44" viewBox="0 0 48 44" fill="none" xmlns="http://www.w3.org/2000/svg">
<g clip-path="url(#clip0_276_146)">
<path d="M24.1359 43.7966C7.16649 43.7966 -0.532611 32.186 0.154809 14.896C0.154809 13.6167 1.35288 13.2096 3.45443 13.2096C5.41848 13.2096 7.02901 13.481 6.95045 14.896C6.538 28.6776 10.8786 37.4583 24.1163 37.4583C37.5112 37.4583 41.8517 28.4644 41.2822 14.896C41.2036 13.481 42.8338 13.2096 44.7782 13.2096C46.8797 13.2096 48.0778 13.6167 48.0778 14.896C48.8045 32.3798 40.9483 43.7966 24.1359 43.7966Z" fill="black"/>
<path d="M13.4515 11.6977L13.53 21.7189C13.53 23.1533 15.0227 23.5797 16.7314 23.5022C18.9312 23.4247 20.2864 22.9595 20.1489 21.5057C19.9132 19.1797 19.7168 16.8537 19.54 14.5083C21.072 14.4501 22.604 14.4308 24.1359 14.4308C26.0607 14.4308 27.3963 14.5277 28.6729 14.6052C28.4961 16.9118 28.2997 19.1991 28.0641 21.5057C27.9266 22.9401 29.2818 23.4247 31.4815 23.5022C33.1902 23.5797 34.6829 23.1533 34.6829 21.7189L34.7615 11.6977C34.9775 7.64657 35.3311 5.59193 35.7632 2.43243C35.9006 1.05621 34.7615 0.377786 32.4832 0.242102C30.5584 0.106418 29.0068 0.51347 29.0068 1.94784C29.0854 4.46769 29.0657 6.96815 28.9872 9.48799C25.7465 9.64306 22.5254 9.64306 19.2847 9.46861C19.1865 6.96815 19.1865 4.4483 19.2454 1.92846C19.2454 0.494086 17.6742 0.0676517 15.7494 0.203336C13.4711 0.33902 12.332 1.01744 12.4694 2.39366C12.8819 5.57254 13.2551 7.64657 13.4515 11.6977ZM57.7017 35.7525H64.1045V23.1339C64.5562 22.7269 65.0669 22.3973 65.6168 22.1454C66.2453 21.8546 66.9327 21.7189 67.6202 21.7189C68.3076 21.6802 68.995 21.9128 69.5253 22.3586C69.9967 22.785 70.2323 23.5604 70.2323 24.6846V35.7331H76.6352V22.8819C76.6352 20.8661 76.0852 19.296 75.005 18.1524C73.9248 17.0088 72.4321 16.4466 70.5073 16.4466C69.27 16.4466 68.0522 16.7374 66.972 17.3383C65.8721 17.9198 64.8901 18.6951 64.0652 19.6255L64.1045 9.23601H57.7017V35.7525ZM94.7438 29.8987C94.3313 30.267 93.8599 30.5578 93.3493 30.7904C92.7797 31.0424 92.1512 31.1586 91.5227 31.1586C90.6978 31.1586 90.0693 30.9454 89.5979 30.4996C89.1266 30.0538 88.9105 29.2785 88.9105 28.1542V17.1057H82.5077V29.9569C82.5077 31.9728 83.038 33.5428 84.0986 34.6864C85.1592 35.8301 86.6322 36.3922 88.5374 36.3922C89.7551 36.4116 90.9728 36.1014 92.0334 35.5199C93.035 34.9966 93.9582 34.2988 94.7438 33.4847V35.7719H101.147V17.0863H94.7438V29.8987ZM143.256 22.1647C142.883 21.0405 142.313 20.0132 141.567 19.1022C140.86 18.2687 139.976 17.6096 138.974 17.1638C137.933 16.6986 136.814 16.466 135.694 16.4854C134.575 16.4466 133.475 16.7374 132.513 17.2801C131.707 17.7647 130.941 18.3462 130.274 19.0053L130.313 9.25539H123.91V36.3534L129.9 35.5587C130.607 35.7913 131.334 35.9657 132.061 36.1014C132.788 36.2371 133.514 36.3146 134.241 36.3146C135.518 36.3146 136.775 36.082 137.933 35.6168C139.092 35.1516 140.133 34.4732 141.017 33.5816C141.92 32.6706 142.627 31.5851 143.099 30.3833C143.629 29.0459 143.884 27.6115 143.845 26.1771C143.904 24.8203 143.688 23.4634 143.256 22.1647ZM136.382 30.267C135.655 31.2168 134.594 31.7014 133.239 31.7014C132.1 31.7014 131.118 31.4494 130.332 30.9454V22.7075C130.745 22.3392 131.216 22.0291 131.727 21.7771C132.297 21.5251 132.905 21.4088 133.514 21.4282C134.83 21.4282 135.812 21.874 136.48 22.7656C137.148 23.6573 137.482 24.9172 137.482 26.526C137.482 28.0767 137.108 29.3172 136.382 30.267ZM119.098 17.1444C118.529 16.97 117.939 16.8925 117.35 16.8925C115.523 16.8925 114.09 17.8422 113.029 19.7224V17.0475H107.058V35.7719H113.049V25.111C114.365 22.0291 118.293 22.5136 119.098 22.6493V17.1444Z" fill="black"/>
</g>
<defs>
<clipPath id="clip0_276_146">
<rect width="48" height="44" fill="white"/>
</clipPath>
</defs>
</svg>
