<svg width="22" height="24" viewBox="0 0 22 24" fill="none" xmlns="http://www.w3.org/2000/svg">
<path d="M16.1223 0C19.8978 0 22 2.136 22 5.796V18.192C22 21.912 19.8978 24 16.1223 24H5.87889C2.16333 24 0 21.912 0 18.192V5.796C0 2.136 2.16333 0 5.87889 0H16.1223ZM6.20889 16.488C5.84222 16.452 5.48778 16.62 5.29222 16.932C5.09667 17.232 5.09667 17.628 5.29222 17.94C5.48778 18.24 5.84222 18.42 6.20889 18.372H15.7911C16.2788 18.324 16.6467 17.9148 16.6467 17.436C16.6467 16.944 16.2788 16.536 15.7911 16.488H6.20889ZM15.7911 11.0148H6.20889C5.68211 11.0148 5.25556 11.436 5.25556 11.952C5.25556 12.468 5.68211 12.888 6.20889 12.888H15.7911C16.3167 12.888 16.7444 12.468 16.7444 11.952C16.7444 11.436 16.3167 11.0148 15.7911 11.0148ZM9.86211 5.58H6.20889V5.592C5.68211 5.592 5.25556 6.012 5.25556 6.528C5.25556 7.044 5.68211 7.464 6.20889 7.464H9.86211C10.3889 7.464 10.8167 7.044 10.8167 6.5148C10.8167 6 10.3889 5.58 9.86211 5.58Z" fill="#B1B8BD"/>
</svg>
