<svg width="24" height="24" viewBox="0 0 24 24" fill="none" xmlns="http://www.w3.org/2000/svg">
<path d="M7.10397 13.7636C8.79596 13.7636 10.152 15.1328 10.152 16.8368V20.9275C10.152 22.6195 8.79596 23.9995 7.10397 23.9995H3.04798C1.36799 23.9995 0 22.6195 0 20.9275V16.8368C0 15.1328 1.36799 13.7636 3.04798 13.7636H7.10397ZM20.952 13.7636C22.632 13.7636 24 15.1328 24 16.8368V20.9275C24 22.6195 22.632 23.9995 20.952 23.9995H16.896C15.204 23.9995 13.8481 22.6195 13.8481 20.9275V16.8368C13.8481 15.1328 15.204 13.7636 16.896 13.7636H20.952ZM7.10397 0C8.79596 0 10.152 1.37999 10.152 3.07318V7.16396C10.152 8.86796 8.79596 10.2359 7.10397 10.2359H3.04798C1.36799 10.2359 0 8.86796 0 7.16396V3.07318C0 1.37999 1.36799 0 3.04798 0H7.10397ZM20.952 0C22.632 0 24 1.37999 24 3.07318V7.16396C24 8.86796 22.632 10.2359 20.952 10.2359H16.896C15.204 10.2359 13.8481 8.86796 13.8481 7.16396V3.07318C13.8481 1.37999 15.204 0 16.896 0H20.952Z" fill="#B1B8BD"/>
</svg>
