<svg width="135" height="136" viewBox="0 0 135 136" fill="none" xmlns="http://www.w3.org/2000/svg">
<g clip-path="url(#clip0_682_3)">
<path d="M78.4124 77.6303C73.0905 76.3849 68.3028 73.4808 64.7413 69.3378C61.1799 65.1947 59.0293 60.0273 58.6004 54.5827C58.1715 49.138 59.4866 43.6981 62.3554 39.0494C65.2243 34.4006 69.4983 30.7838 74.5597 28.7218C79.6211 26.6598 85.2077 26.2594 90.5118 27.5785C95.8159 28.8977 100.563 31.868 104.066 36.06C107.57 40.2521 109.648 45.4488 110.002 50.8989C110.355 56.349 108.964 61.7701 106.031 66.3786C108.358 68.5789 109.98 71.4189 110.692 74.5399C115.875 68.4011 118.687 60.6115 118.621 52.5806C118.617 47.2315 117.36 41.9576 114.951 37.1807C112.542 32.4038 109.048 28.2565 104.747 25.0706C100.447 21.8847 95.4602 19.7487 90.1857 18.8333C84.9113 17.9179 79.4956 18.2487 74.372 19.799C69.2484 21.3494 64.559 24.0764 60.679 27.7619C56.799 31.4473 53.8361 35.989 52.0272 41.0234C50.2184 46.0579 49.6139 51.4455 50.2621 56.7552C50.9102 62.0649 52.7931 67.1494 55.7599 71.6019C36.1351 87.1192 27.3137 90.8408 25.6365 94.6059C24.5288 97.1719 24.3725 100.048 25.1955 102.719C26.0186 105.39 27.7672 107.68 30.1276 109.179C32.488 110.678 35.3057 111.287 38.0752 110.898C40.8448 110.509 43.3848 109.146 45.2396 107.055L64.1675 80.4161C69.0208 83.9655 74.7365 86.1522 80.7212 86.7492C79.1464 84.1825 78.3168 81.2287 78.3253 78.218L78.4124 77.6303Z" fill="#D2D2D2"/>
<path d="M94.7483 64.964C92.1248 64.964 89.5602 65.7413 87.3788 67.1977C85.1974 68.654 83.4972 70.724 82.4932 73.1459C81.4893 75.5677 81.2266 78.2326 81.7384 80.8037C82.2502 83.3747 83.5136 85.7363 85.3687 87.5899C87.2238 89.4435 89.5873 90.7058 92.1605 91.2172C94.7336 91.7286 97.4007 91.4662 99.8245 90.463C102.248 89.4598 104.32 87.7611 105.778 85.5815C107.235 83.4018 108.013 80.8393 108.013 78.2179C108.013 76.4774 107.67 74.7539 107.003 73.1459C106.337 71.5378 105.36 70.0767 104.128 68.846C102.896 67.6152 101.434 66.639 99.8245 65.9729C98.2151 65.3068 96.4902 64.964 94.7483 64.964ZM94.7483 70.0566C99.8451 70.0566 102.437 72.6683 102.437 75.1493C102.437 79.3496 97.7977 79.132 97.1224 80.4814C97.0548 80.6822 96.9341 80.8611 96.7731 80.999C96.612 81.1369 96.4166 81.2288 96.2076 81.2648H92.9187C92.8149 81.2678 92.7116 81.2496 92.6151 81.2113C92.5186 81.173 92.4309 81.1154 92.3575 81.0421C92.2841 80.9687 92.2264 80.8811 92.1881 80.7847C92.1498 80.6883 92.1315 80.5851 92.1345 80.4814C92.1345 77.0862 97.2314 77.3039 97.2314 75.1493C97.2314 74.4746 96.5561 73.8 94.7483 73.8C94.2569 73.7563 93.7631 73.849 93.3211 74.0679C92.8791 74.2868 92.5062 74.6233 92.2435 75.0405C92.1303 75.3066 91.9427 75.5343 91.7031 75.6965C91.4636 75.8586 91.1823 75.9482 90.893 75.9545H88.0615C87.9388 75.9644 87.8155 75.9475 87.7 75.9051C87.5846 75.8626 87.4797 75.7956 87.3927 75.7087C87.3057 75.6217 87.2387 75.517 87.1962 75.4016C87.1537 75.2862 87.1368 75.163 87.1466 75.0405C87.1031 72.5594 89.6079 70.0566 94.7047 70.0566H94.7483ZM95.5324 86.3575H93.3543C93.0606 86.3372 92.7842 86.2114 92.576 86.0034C92.3678 85.7954 92.242 85.5192 92.2217 85.2258V83.6588C92.242 83.3654 92.3678 83.0892 92.576 82.8812C92.7842 82.6732 93.0606 82.5474 93.3543 82.5271H95.5324C95.8261 82.5474 96.1025 82.6732 96.3107 82.8812C96.5189 83.0892 96.6447 83.3654 96.665 83.6588V85.2258C96.6437 85.5263 96.5116 85.8083 96.2944 86.0173C96.0772 86.2263 95.7902 86.3475 95.4888 86.3575H95.5324Z" fill="#D2D2D2"/>
<path d="M33.2164 109.296C31.3407 109.297 29.4889 108.875 27.7993 108.061C26.1097 107.247 24.6258 106.062 23.4584 104.595C21.9938 102.751 21.0765 100.533 20.8108 98.1942C20.5451 95.855 20.9417 93.4882 21.9555 91.3631C22.9792 89.1867 25.7672 87.2933 31.365 83.4629C36.2004 80.1549 42.8001 75.6281 51.8393 68.5114C48.4342 63.2297 46.5364 57.1195 46.3505 50.8395C46.1876 44.6532 47.6441 38.5316 50.576 33.0805C53.5249 27.4788 57.9613 22.7971 63.3981 19.5492C68.835 16.3013 75.0622 14.6126 81.3965 14.6686C86.0035 14.6686 90.5653 15.5756 94.8213 17.3379C99.0774 19.1001 102.944 21.683 106.201 24.939C109.457 28.195 112.04 32.0603 113.801 36.3139C115.562 40.5676 116.467 45.1263 116.464 49.7296C116.525 57.9139 113.669 65.8528 108.405 72.1242C108.308 72.2305 108.184 72.3088 108.046 72.351C107.908 72.3931 107.761 72.3974 107.621 72.3636C107.483 72.331 107.358 72.2609 107.258 72.1609C107.158 72.061 107.087 71.9352 107.055 71.7977C106.396 68.8309 104.882 66.122 102.698 64.0064C102.589 63.8709 102.529 63.7019 102.529 63.5276C102.529 63.3533 102.589 63.1843 102.698 63.0488C105.541 58.5867 106.89 53.3372 106.551 48.0588C106.212 42.7804 104.202 37.7463 100.812 33.684C97.422 29.6216 92.8272 26.7414 87.6915 25.4593C82.5557 24.1772 77.145 24.5597 72.2411 26.5515C67.3372 28.5434 63.194 32.0414 60.4102 36.5402C57.6263 41.039 56.3459 46.3057 56.754 51.5792C57.1621 56.8528 59.2376 61.8601 62.6805 65.8779C66.1234 69.8956 70.7555 72.7156 75.9076 73.9305C76.0801 73.975 76.2324 74.0767 76.3393 74.2192C76.4462 74.3616 76.5013 74.5361 76.4957 74.714V75.2799C76.49 78.1453 77.2818 80.956 78.7827 83.3977C78.8576 83.5226 78.8971 83.6655 78.8971 83.8112C78.8971 83.9568 78.8576 84.0997 78.7827 84.2247C78.7016 84.3435 78.5902 84.4385 78.46 84.4997C78.3297 84.5609 78.1855 84.5862 78.0421 84.5729C72.1782 84.0016 66.5638 81.9166 61.7498 78.5226L43.0615 104.574C41.8828 106.051 40.3851 107.244 38.6802 108.061C36.9754 108.879 35.1075 109.301 33.2164 109.296ZM81.3965 16.1485C75.3252 16.0917 69.3563 17.712 64.1483 20.8304C58.9403 23.9488 54.6957 28.4441 51.8829 33.8204C48.9956 39.1631 47.6182 45.1903 47.8983 51.2557C48.1784 57.3211 50.1055 63.1959 53.4729 68.2503C53.5786 68.4112 53.6194 68.6062 53.5871 68.7959C53.5547 68.9857 53.4517 69.1562 53.2987 69.2732C43.9545 76.6727 37.137 81.3301 32.1927 84.747C27.2484 88.1639 24.1554 90.2532 23.3059 92.016C22.506 93.6903 22.1423 95.5393 22.2487 97.3916C22.3551 99.2438 22.9281 101.039 23.9145 102.611C24.901 104.183 26.2689 105.48 27.8912 106.383C29.5136 107.285 31.3378 107.763 33.1946 107.773C34.8384 107.77 36.4605 107.399 37.9419 106.687C39.4232 105.975 40.7261 104.941 41.7546 103.659L60.6825 77.0427C60.7998 76.872 60.9799 76.7547 61.1835 76.7163C61.2833 76.703 61.3847 76.7097 61.4819 76.7358C61.5791 76.762 61.6702 76.8071 61.7498 76.8686C66.0944 80.0296 71.1377 82.0975 76.4521 82.8971C75.2926 80.5326 74.6891 77.9347 74.6878 75.3016C69.0102 73.8227 63.9841 70.5034 60.3972 65.8639C56.8102 61.2244 54.8652 55.5269 54.8669 49.6643C54.8589 45.576 55.7981 41.5414 57.611 37.8764C59.4239 34.2114 62.0613 31.0155 65.3167 28.5389C68.572 26.0623 72.357 24.3723 76.3751 23.6012C80.3933 22.8302 84.5355 22.999 88.4774 24.0944C92.4194 25.1899 96.054 27.1822 99.0967 29.9155C102.139 32.6487 104.508 36.0486 106.016 39.849C107.524 43.6494 108.131 47.747 107.79 51.821C107.449 55.895 106.168 59.8347 104.049 63.3317C105.859 65.1797 107.228 67.4113 108.057 69.8608C112.55 64.0889 114.974 56.9767 114.94 49.6643C114.928 40.7789 111.39 32.2607 105.102 25.9778C98.8142 19.6948 90.2891 16.16 81.3965 16.1485Z" fill="#231F20"/>
<path d="M91.8297 89.3173C89.0492 89.3216 86.33 88.5015 84.0163 86.9607C81.7027 85.4199 79.8986 83.2277 78.8326 80.6618C77.7666 78.0959 77.4865 75.2717 78.0279 72.5467C78.5693 69.8216 79.9078 67.3184 81.8739 65.3539C83.8399 63.3894 86.3452 62.0521 89.0724 61.5111C91.7997 60.9702 94.6263 61.25 97.1942 62.3152C99.7622 63.3803 101.956 65.1829 103.498 67.4947C105.04 69.8065 105.861 72.5235 105.857 75.3016C105.851 79.0171 104.371 82.5787 101.742 85.2059C99.1126 87.8331 95.5481 89.3116 91.8297 89.3173ZM91.8297 62.8094C89.3569 62.8094 86.9397 63.5421 84.8837 64.9147C82.8277 66.2874 81.2252 68.2384 80.279 70.5211C79.3327 72.8037 79.0851 75.3155 79.5675 77.7388C80.0499 80.162 81.2406 82.3879 82.9891 84.135C84.7376 85.8821 86.9653 87.0718 89.3906 87.5539C91.8158 88.0359 94.3296 87.7885 96.6141 86.843C98.8987 85.8975 100.851 84.2963 102.225 82.242C103.599 80.1876 104.332 77.7724 104.332 75.3016C104.326 71.9903 103.007 68.8162 100.664 66.4747C98.3204 64.1331 95.1438 62.8152 91.8297 62.8094ZM92.5703 84.2029H90.3921C89.8926 84.1869 89.4175 83.9829 89.0621 83.6318C88.7066 83.2807 88.4971 82.8084 88.4754 82.3095V80.7208C88.4898 80.3723 88.5961 80.0338 88.7835 79.7395C88.971 79.4452 89.2328 79.2057 89.5426 79.045C89.2324 78.9405 88.9627 78.7416 88.7713 78.4762C88.5799 78.2108 88.4764 77.8922 88.4754 77.5651C88.4754 75.1928 90.4575 74.2135 91.895 73.517C92.9187 73.0382 93.5722 72.6683 93.5722 72.233C93.5722 71.7977 93.1148 71.6454 91.8515 71.6454C91.4958 71.6077 91.1366 71.6691 90.8137 71.8227C90.4908 71.9764 90.2168 72.2163 90.0218 72.5159C89.8485 72.9012 89.5668 73.2277 89.211 73.4557C88.8552 73.6837 88.4407 73.8033 88.018 73.8H85.1646C84.9429 73.8094 84.7216 73.7724 84.515 73.6912C84.3084 73.6101 84.1211 73.4866 83.9652 73.3287C83.8092 73.1709 83.6881 72.9821 83.6096 72.7747C83.5311 72.5672 83.4969 72.3456 83.5093 72.1242C83.5093 69.3602 86.123 66.3786 91.8515 66.3786C97.5799 66.3786 100.324 69.3167 100.324 72.233C100.298 73.4018 99.8809 74.5281 99.1385 75.4317C98.3961 76.3352 97.3718 76.9638 96.2295 77.2168C95.7552 77.3573 95.3117 77.5862 94.9226 77.8915C94.8076 78.1793 94.6281 78.437 94.3977 78.6445C94.1673 78.852 93.8924 79.0039 93.594 79.0885C93.8773 79.259 94.1135 79.4977 94.2809 79.7828C94.4483 80.0679 94.5416 80.3904 94.5523 80.7208V82.3095C94.5582 82.5722 94.5111 82.8334 94.4138 83.0775C94.3166 83.3217 94.1712 83.5438 93.9862 83.7306C93.8013 83.9174 93.5806 84.0651 93.3373 84.165C93.0941 84.2648 92.8332 84.3147 92.5703 84.3117V84.2029ZM90.3921 80.3725C90.3039 80.39 90.2224 80.4319 90.1569 80.4935C90.0915 80.5551 90.0446 80.6338 90.0218 80.7208V82.3095C90.0382 82.4016 90.0825 82.4865 90.1487 82.5527C90.215 82.6188 90.2999 82.6631 90.3921 82.6795H92.5703C92.6572 82.6567 92.736 82.6099 92.7977 82.5445C92.8593 82.479 92.9012 82.3976 92.9187 82.3095V80.7208C92.8977 80.6366 92.8541 80.5598 92.7927 80.4984C92.7313 80.4371 92.6545 80.3936 92.5703 80.3725H90.3921ZM91.8515 70.1002C94.2692 70.1002 95.1186 71.2101 95.1186 72.2765C95.1186 73.7129 93.7682 74.4529 92.5703 74.9534C91.0238 75.6934 90.0218 76.281 90.0218 77.6086H93.1583C93.2603 77.4964 93.3481 77.3722 93.4197 77.2386C93.7682 76.5204 94.5959 76.1939 95.5978 75.8022C97.1225 75.1711 98.7343 74.5182 98.7343 72.2548C98.7343 69.9914 96.3384 67.9021 91.7861 67.9021C87.2339 67.9021 84.9686 70.0784 84.9686 72.1242C84.9649 72.1676 84.9649 72.2113 84.9686 72.2548H87.9308C88.1704 72.2548 88.3229 72.2548 88.6278 71.7107C88.9567 71.1845 89.4218 70.757 89.974 70.4735C90.5261 70.19 91.1448 70.061 91.7643 70.1002H91.8515Z" fill="#231F20"/>
<path d="M123.739 16.6708C127.168 16.6708 129.947 13.8938 129.947 10.4682C129.947 7.04264 127.168 4.26564 123.739 4.26564C120.311 4.26564 117.531 7.04264 117.531 10.4682C117.531 13.8938 120.311 16.6708 123.739 16.6708Z" fill="#D2D2D2"/>
<path d="M7.20959 10.6859C7.20959 9.86803 7.45231 9.06856 7.90704 8.38855C8.36178 7.70854 9.00811 7.17854 9.76431 6.86557C10.5205 6.5526 11.3526 6.47071 12.1554 6.63026C12.9582 6.78981 13.6956 7.18364 14.2743 7.76194C14.8531 8.34024 15.2473 9.07703 15.4069 9.87916C15.5666 10.6813 15.4847 11.5127 15.1714 12.2683C14.8582 13.0239 14.3278 13.6697 13.6472 14.124C12.9667 14.5784 12.1665 14.8209 11.348 14.8209C10.8046 14.8209 10.2664 14.714 9.76431 14.5062C9.26221 14.2984 8.806 13.9938 8.42171 13.6098C8.03742 13.2258 7.73259 12.77 7.52462 12.2683C7.31664 11.7666 7.20959 11.2289 7.20959 10.6859Z" fill="#D2D2D2"/>
<path d="M7.20955 11.4694C6.23596 11.4694 5.28422 11.1809 4.47471 10.6404C3.6652 10.1 3.03428 9.3318 2.6617 8.43305C2.28912 7.5343 2.19164 6.54535 2.38157 5.59124C2.57151 4.63714 3.04034 3.76074 3.72878 3.07287C4.41721 2.385 5.29432 1.91655 6.24921 1.72677C7.20409 1.53698 8.19384 1.63439 9.09332 2.00666C9.9928 2.37893 10.7616 3.00936 11.3025 3.81821C11.8434 4.62706 12.1321 5.57801 12.1321 6.55081C12.1321 7.85529 11.6135 9.10634 10.6903 10.0287C9.76716 10.9511 8.51509 11.4694 7.20955 11.4694ZM7.20955 3.19923C6.54089 3.19924 5.8873 3.39765 5.33164 3.76929C4.77598 4.14092 4.34329 4.66906 4.08842 5.28672C3.83354 5.90439 3.76796 6.58377 3.9 7.23872C4.03205 7.89367 4.35576 8.49469 4.8301 8.96559C5.30444 9.43648 5.90804 9.75603 6.56436 9.88372C7.22069 10.0114 7.90018 9.9415 8.51668 9.68284C9.13319 9.42418 9.65895 8.98842 10.0273 8.43082C10.3956 7.87323 10.5899 7.2189 10.5856 6.55081C10.5856 6.10883 10.4982 5.67122 10.3282 5.26316C10.1583 4.85511 9.90928 4.48466 9.59549 4.17315C9.2817 3.86165 8.90935 3.61523 8.49987 3.44808C8.09038 3.28093 7.65187 3.19636 7.20955 3.19923Z" fill="#231F20"/>
<path d="M120.82 0H119.274V5.37558H120.82V0Z" fill="#231F20"/>
<path d="M115.098 1.57298L114.005 2.66562L117.809 6.46673L118.902 5.37409L115.098 1.57298Z" fill="#231F20"/>
<path d="M117.553 6.76844H112.173V8.31365H117.553V6.76844Z" fill="#231F20"/>
<path d="M117.589 8.70521L113.784 12.5057L114.878 13.5985L118.682 9.79803L117.589 8.70521Z" fill="#231F20"/>
<path d="M120.494 10.0547H118.947V15.4303H120.494V10.0547Z" fill="#231F20"/>
<path d="M121.975 8.93478L120.882 10.0274L124.686 13.8285L125.78 12.7359L121.975 8.93478Z" fill="#231F20"/>
<path d="M127.594 7.09489H122.214V8.6401H127.594V7.09489Z" fill="#231F20"/>
<path d="M124.916 1.81807L121.112 5.61918L122.205 6.71181L126.009 2.91069L124.916 1.81807Z" fill="#231F20"/>
<path d="M1.219 47.5991L0.125488 48.6917L1.98909 50.5538L3.0826 49.4612L1.219 47.5991Z" fill="#231F20"/>
<path d="M1.85615 51.0895L-0.00744629 52.9516L1.08607 54.0442L2.94967 52.1822L1.85615 51.0895Z" fill="#231F20"/>
<path d="M4.56385 51.207L3.47034 52.2997L5.33393 54.1617L6.42745 53.0691L4.56385 51.207Z" fill="#231F20"/>
<path d="M5.4515 47.7102L3.58789 49.5723L4.68141 50.6649L6.54502 48.8028L5.4515 47.7102Z" fill="#231F20"/>
<path d="M66.5047 129.441L65.4111 130.534L67.2747 132.396L68.3683 131.303L66.5047 129.441Z" fill="#231F20"/>
<path d="M67.1739 132.956L65.3099 134.818L66.4033 135.911L68.2672 134.049L67.1739 132.956Z" fill="#231F20"/>
<path d="M69.8712 133.027L68.7777 134.12L70.6413 135.982L71.7348 134.889L69.8712 133.027Z" fill="#231F20"/>
<path d="M70.7477 129.55L68.8844 131.412L69.9781 132.504L71.8414 130.642L70.7477 129.55Z" fill="#231F20"/>
<path d="M21.4327 114.237L15.4865 124.531H27.379L21.4327 114.237Z" fill="#D2D2D2"/>
<path d="M24.3732 123.486H12.5678C12.4357 123.488 12.3055 123.455 12.1906 123.39C12.0757 123.325 11.9803 123.23 11.9143 123.116C11.8384 122.999 11.798 122.863 11.798 122.724C11.798 122.585 11.8384 122.449 11.9143 122.333L17.8606 112.06C17.9255 111.943 18.0201 111.846 18.1348 111.777C18.2495 111.708 18.3803 111.671 18.514 111.668C18.6515 111.667 18.7868 111.702 18.9056 111.771C19.0245 111.84 19.1225 111.94 19.1892 112.06L25.1355 122.333C25.2003 122.453 25.2343 122.588 25.2343 122.724C25.2343 122.861 25.2003 122.996 25.1355 123.116C25.0616 123.248 24.9489 123.355 24.8125 123.421C24.6762 123.487 24.5229 123.51 24.3732 123.486ZM13.8311 121.963H23.0445L18.4269 113.975L13.8311 121.963Z" fill="#231F20"/>
<path d="M132.365 125.445L129.729 129.993H135L132.365 125.445Z" fill="#D2D2D2"/>
<path d="M132.604 129.863H127.311C127.177 129.86 127.047 129.823 126.932 129.754C126.817 129.685 126.723 129.588 126.658 129.471C126.584 129.358 126.544 129.225 126.544 129.09C126.544 128.955 126.584 128.822 126.658 128.709L129.293 124.139C129.36 124.019 129.458 123.919 129.577 123.85C129.696 123.781 129.831 123.746 129.968 123.747C130.102 123.749 130.233 123.787 130.348 123.856C130.462 123.924 130.557 124.022 130.622 124.139L133.257 128.709C133.332 128.822 133.371 128.955 133.371 129.09C133.371 129.225 133.332 129.358 133.257 129.471C133.193 129.588 133.098 129.685 132.983 129.754C132.869 129.823 132.738 129.86 132.604 129.863ZM128.662 128.317H131.254L129.968 126.141L128.662 128.317Z" fill="#231F20"/>
</g>
<defs>
<clipPath id="clip0_682_3">
<rect width="135" height="136" fill="white"/>
</clipPath>
</defs>
</svg>
