<svg width="40" height="47" viewBox="0 0 40 47" fill="none" xmlns="http://www.w3.org/2000/svg">
<path d="M22.947 0C23.5527 0 24.0186 0.4935 24.0186 1.081V8.648C24.0186 12.9485 27.5364 16.4735 31.7997 16.497C33.5702 16.497 34.968 16.5205 36.0396 16.5205L36.4365 16.5188C37.1527 16.5133 38.1169 16.497 38.9517 16.497C39.5341 16.497 40 16.967 40 17.5545V36.4485C40 42.2765 35.3174 47 29.5399 47H10.9959C4.93885 47 0 42.0415 0 35.9315V10.5985C0 4.7705 4.70588 0 10.5067 0H22.947ZM25.4397 30.315H12.7665C11.8113 30.315 11.0192 31.0905 11.0192 32.054C11.0192 33.0175 11.8113 33.8165 12.7665 33.8165H25.4397C26.3949 33.8165 27.187 33.0175 27.187 32.054C27.187 31.0905 26.3949 30.315 25.4397 30.315ZM20.6407 18.565H12.7665C11.8113 18.565 11.0192 19.364 11.0192 20.3275C11.0192 21.291 11.8113 22.0665 12.7665 22.0665H20.6407C21.5958 22.0665 22.3879 21.291 22.3879 20.3275C22.3879 19.364 21.5958 18.565 20.6407 18.565ZM27.4134 2.1291C27.4134 1.11625 28.6318 0.61335 29.3284 1.3442C31.8467 3.9856 36.2474 8.60335 38.7075 11.1836C39.3878 11.8957 38.8892 13.0777 37.9084 13.0801C35.9935 13.0871 33.7361 13.0801 32.1123 13.0636C29.5357 13.0636 27.4134 10.9228 27.4134 8.3237V2.1291Z" fill="black"/>
</svg>
