<svg width="24" height="23" viewBox="0 0 24 23" fill="none" xmlns="http://www.w3.org/2000/svg">
<path d="M11.3775 13.1724C11.6309 12.9293 12.0675 12.9293 12.3209 13.1724L15.9351 16.6401C16.6016 17.2795 17.4887 17.6308 18.4274 17.6308H19.1362L14.5786 22.0036C13.1564 23.3321 10.8471 23.3321 9.42491 22.0036L4.84856 17.6173H5.28507C6.22381 17.6173 7.11092 17.266 7.77742 16.6266L11.3775 13.1724ZM12.3209 9.85793C12.0205 10.1056 11.6356 10.1101 11.3775 9.85793L7.77742 6.40382C7.11092 5.72381 6.22381 5.41307 5.28507 5.41307H4.84856L9.42022 1.02495C10.8471 -0.341651 13.1564 -0.341651 14.5786 1.02495L19.1409 5.39956H18.4274C17.4887 5.39956 16.6016 5.75083 15.9351 6.39031L12.3209 9.85793ZM5.28507 6.42634C5.9328 6.42634 6.5289 6.67853 7.02643 7.11986L10.6265 10.574C10.9644 10.8577 11.4056 11.0603 11.8516 11.0603C12.2928 11.0603 12.734 10.8577 13.0719 10.574L16.6861 7.10635C17.146 6.66952 17.7797 6.41733 18.4274 6.41733H20.1969L22.9334 9.04282C24.3555 10.4073 24.3555 12.623 22.9334 13.9876L20.1969 16.613H18.4274C17.7797 16.613 17.146 16.3609 16.6861 15.9195L13.0719 12.4519C12.4195 11.8259 11.2789 11.8259 10.6265 12.4564L7.02643 15.906C6.5289 16.3473 5.9328 16.5995 5.28507 16.5995H3.79154L1.06826 13.9876C-0.356087 12.623 -0.356087 10.4073 1.06826 9.04282L3.79154 6.42634H5.28507Z" fill="black"/>
</svg>
