<svg width="40" height="40" viewBox="0 0 40 40" fill="none" xmlns="http://www.w3.org/2000/svg">
<path d="M28.67 0C35.446 0 40 4.756 40 11.834V28.168C40 35.246 35.446 40 28.668 40H11.332C4.554 40 0 35.246 0 28.168V11.834C0 4.756 4.554 0 11.332 0H28.67ZM13.682 14.798C10.814 14.798 8.48 17.132 8.48 20C8.48 22.87 10.814 25.204 13.682 25.204C16.026 25.204 17.99 23.636 18.638 21.5H22.862V23.704C22.862 24.532 23.534 25.204 24.362 25.204C25.19 25.204 25.862 24.532 25.862 23.704V21.5H28.522V23.704C28.522 24.532 29.194 25.204 30.022 25.204C30.85 25.204 31.522 24.532 31.522 23.704V20C31.522 19.172 30.85 18.5 30.022 18.5H18.638C17.99 16.366 16.026 14.798 13.682 14.798ZM13.6822 17.7978C14.8962 17.7978 15.8862 18.7858 15.8862 20.0018C15.8862 21.2158 14.8962 22.2038 13.6822 22.2038C12.4682 22.2038 11.4782 21.2158 11.4782 20.0018C11.4782 18.7858 12.4682 17.7978 13.6822 17.7978Z" fill="black"/>
</svg>
