<svg width="40" height="30" viewBox="0 0 40 30" fill="none" xmlns="http://www.w3.org/2000/svg">
<path d="M19.9073 19.4754C26.1458 19.4754 31.4727 20.4805 31.4727 24.5028C31.4727 28.5235 26.18 29.5652 19.9073 29.5652C13.6688 29.5652 8.34198 28.5601 8.34198 24.5394C8.34198 20.5172 13.6346 19.4754 19.9073 19.4754ZM29.882 17.0534C32.267 17.0084 34.8311 17.3413 35.7786 17.5776C37.7859 17.9786 39.1062 18.7974 39.6532 19.9873C40.1156 20.9641 40.1156 22.0974 39.6532 23.0726C38.8164 24.9182 36.1188 25.5106 35.0704 25.6637C34.8539 25.697 34.6797 25.5057 34.7025 25.2843C35.2381 20.1703 30.9776 17.7457 29.8754 17.1882C29.8282 17.1632 29.8185 17.1249 29.8233 17.1016C29.8266 17.085 29.8461 17.0584 29.882 17.0534ZM9.67015 17.0499L10.1193 17.054C10.1551 17.059 10.173 17.0856 10.1763 17.1006C10.1811 17.1256 10.1714 17.1622 10.1258 17.1888C9.022 17.7463 4.76151 20.171 5.29712 25.2833C5.31991 25.5063 5.14735 25.696 4.93082 25.6644C3.88239 25.5113 1.18478 24.9189 0.347986 23.0733C-0.115995 22.0964 -0.115995 20.9648 0.347986 19.9879C0.894996 18.7981 2.21368 17.9793 4.22101 17.5766C5.17014 17.3419 7.73262 17.0091 10.1193 17.054L9.67015 17.0499ZM19.9073 0C24.1548 0 27.5606 3.4781 27.5606 7.82157C27.5606 12.1634 24.1548 15.6448 19.9073 15.6448C15.6599 15.6448 12.2541 12.1634 12.2541 7.82157C12.2541 3.4781 15.6599 0 19.9073 0ZM30.2971 1.30437C34.3997 1.30437 37.6215 5.25011 36.5242 9.64517C35.7835 12.6041 33.1021 14.5694 30.1148 14.4895C29.8152 14.4812 29.5205 14.4529 29.2356 14.403C29.0289 14.3664 28.9247 14.1284 29.0419 13.952C30.1815 12.2379 30.8311 10.176 30.8311 7.9627C30.8311 5.65283 30.1213 3.49941 28.8889 1.73373C28.8498 1.67881 28.8205 1.59394 28.8596 1.5307C28.8921 1.47911 28.9524 1.45248 29.0093 1.43917C29.4245 1.35263 29.851 1.30437 30.2971 1.30437ZM9.70169 1.30421C10.1478 1.30421 10.5743 1.35247 10.9911 1.439C11.0464 1.45232 11.1083 1.48061 11.1408 1.53053C11.1783 1.59377 11.1506 1.67864 11.1115 1.73356C9.87914 3.49924 9.16933 5.65267 9.16933 7.96253C9.16933 10.1759 9.81891 12.2378 10.9585 13.9519C11.0757 14.1283 10.9715 14.3662 10.7648 14.4028C10.4782 14.4544 10.1852 14.4811 9.88565 14.4894C6.89826 14.5693 4.21694 12.6039 3.4762 9.645C2.37729 5.24994 5.59912 1.30421 9.70169 1.30421Z" fill="black"/>
</svg>
