<svg width="40" height="42" viewBox="0 0 40 42" fill="none" xmlns="http://www.w3.org/2000/svg">
<path d="M13.968 39.424V33.0028C13.968 31.3636 15.3098 30.0348 16.9651 30.0348H23.016C23.8109 30.0348 24.5733 30.3475 25.1353 30.9041C25.6974 31.4607 26.0132 32.2156 26.0132 33.0028V39.424C26.0082 40.1055 26.278 40.7607 26.7629 41.2444C27.2477 41.728 27.9075 42 28.5957 42H32.7238C34.6519 42.0049 36.5026 41.2499 37.8677 39.9017C39.2328 38.5534 40 36.7226 40 34.8134V16.5204C40 14.9782 39.3096 13.5153 38.115 12.5258L24.0716 1.41932C21.6288 -0.52802 18.1287 -0.465145 15.7587 1.56865L2.03582 12.5258C0.784717 13.4861 0.0369522 14.9533 0 16.5204V34.7947C0 38.7741 3.25765 42 7.27615 42H11.3101C12.7394 42 13.901 40.858 13.9114 39.4427L13.968 39.424Z" fill="black"/>
</svg>
