<svg width="40" height="40" viewBox="0 0 40 40" fill="none" xmlns="http://www.w3.org/2000/svg">
<path d="M15.7307 1.77117C18.0716 -0.587379 21.893 -0.587379 24.2538 1.75316L25.7144 3.2115C26.2746 3.77163 27.0348 4.0937 27.8351 4.0937H29.8959C33.2171 4.0937 35.9181 6.79233 35.9181 10.1131V12.1756C35.9181 12.9738 36.2382 13.7339 36.7984 14.2941L38.2389 15.7344C39.3793 16.8547 39.9995 18.375 39.9995 19.9754C40.0195 21.5757 39.3993 23.0981 38.2789 24.2364L36.7984 25.7167C36.2382 26.2768 35.9181 27.037 35.9181 27.8392V29.8977C35.9181 33.2184 33.2171 35.9211 29.8959 35.9211H27.8351C27.0348 35.9211 26.2746 36.2391 25.7144 36.7993L24.2738 38.2396C23.0934 39.4219 21.5528 40 20.0123 40C18.4717 40 16.9312 39.4219 15.7507 38.2616L14.2902 36.7993C13.73 36.2391 12.9697 35.9211 12.1694 35.9211H10.1087C6.78749 35.9211 4.08651 33.2184 4.08651 29.8977V27.8392C4.08651 27.037 3.7664 26.2768 3.20619 25.6967L1.76567 24.2764C-0.575176 21.9378 -0.595184 18.1149 1.74566 15.7564L3.20619 14.2941C3.7664 13.7339 4.08651 12.9738 4.08651 12.1536V10.1131C4.08651 6.79233 6.78749 4.0937 10.1087 4.0937H12.1694C12.9697 4.0937 13.73 3.77163 14.2902 3.2115L15.7307 1.77117ZM25.1542 23.3962C24.1738 23.3962 23.3935 24.1783 23.3935 25.1366C23.3935 26.1168 24.1738 26.897 25.1542 26.897C26.1145 26.897 26.8948 26.1168 26.8948 25.1366C26.8948 24.1783 26.1145 23.3962 25.1542 23.3962ZM26.3746 13.6139C25.6943 12.9357 24.5939 12.9357 23.9137 13.6139L13.63 23.8963C12.9497 24.5764 12.9497 25.6967 13.63 26.3769C13.9501 26.7169 14.3902 26.897 14.8504 26.897C15.3306 26.897 15.7707 26.7169 16.0909 26.3769L26.3746 16.0965C27.0548 15.4163 27.0548 14.2941 26.3746 13.6139ZM14.8704 13.1138C13.9101 13.1138 13.1098 13.894 13.1098 14.8542C13.1098 15.8364 13.9101 16.6146 14.8704 16.6146C15.8308 16.6146 16.6111 15.8364 16.6111 14.8542C16.6111 13.894 15.8308 13.1138 14.8704 13.1138Z" fill="black"/>
</svg>
