<svg width="40" height="47" viewBox="0 0 40 47" fill="none" xmlns="http://www.w3.org/2000/svg">
<path d="M19.9641 0C27.1847 0 32.9946 5.67475 32.9946 12.6806V16.284C37.0472 17.5474 40 21.2114 40 25.5877V37.1895C40 42.6073 35.5027 47 29.9582 47H10.0442C4.49731 47 0 42.6073 0 37.1895V25.5877C0 21.2114 2.95517 17.5474 7.00538 16.284V12.6806C7.02929 5.67475 12.8392 0 19.9641 0ZM19.988 26.7531C18.8404 26.7531 17.9079 27.6638 17.9079 28.7848V33.9691C17.9079 35.1134 18.8404 36.0241 19.988 36.0241C21.1596 36.0241 22.0921 35.1134 22.0921 33.9691V28.7848C22.0921 27.6638 21.1596 26.7531 19.988 26.7531ZM20.012 4.08675C15.1584 4.08675 11.2134 7.91663 11.1895 12.6339V15.7772H28.8105V12.6806C28.8105 7.93998 24.8655 4.08675 20.012 4.08675Z" fill="black"/>
</svg>
