<svg width="40" height="33" viewBox="0 0 40 33" fill="none" xmlns="http://www.w3.org/2000/svg">
<path d="M20.8723 0C21.5222 0 22.0503 0.529008 22.0503 1.18203V6.14269C22.0503 6.93717 22.7079 7.59601 23.501 7.59601C24.3133 7.59601 24.9516 6.93717 24.9516 6.14269V1.18203C24.9516 0.529008 25.4797 0 26.1315 0H32.4371C36.6151 0 40 3.39107 40 7.57663V12.4598C40 12.8473 39.8453 13.2155 39.5745 13.4868C39.3037 13.7581 38.9362 13.9131 38.5493 13.9131C37.118 13.9131 35.9574 15.0757 35.9574 16.4903C35.9574 17.9146 37.1045 19.0714 38.5222 19.0869C39.3211 19.0947 40 19.6527 40 20.453V25.4234C40 29.607 36.6151 33 32.4371 33H26.1315C25.4797 33 24.9516 32.471 24.9516 31.818V27.6324C24.9516 26.8186 24.3133 26.1791 23.501 26.1791C22.7079 26.1791 22.0503 26.8186 22.0503 27.6324V31.818C22.0503 32.471 21.5222 33 20.8723 33H7.56286C3.40426 33 0 29.6089 0 25.4234V20.453C0 19.6527 0.678917 19.0947 1.47776 19.0869C2.89749 19.0714 4.04255 17.9146 4.04255 16.4903C4.04255 15.1145 2.9207 14.0681 1.45068 14.0681C1.06383 14.0681 0.696325 13.9131 0.425532 13.6418C0.154739 13.3705 0 13.0023 0 12.6148V7.59601C0 3.4182 3.41199 0 7.5822 0H20.8723ZM23.501 11.7622C22.7079 11.7622 22.0503 12.421 22.0503 13.2155V20.9665C22.0503 21.761 22.7079 22.4198 23.501 22.4198C24.3133 22.4198 24.9516 21.761 24.9516 20.9665V13.2155C24.9516 12.421 24.3133 11.7622 23.501 11.7622Z" fill="black"/>
</svg>
