<svg width="40" height="32" viewBox="0 0 40 32" fill="none" xmlns="http://www.w3.org/2000/svg">
<path d="M20 0C24.1366 0 28.0585 1.43515 31.4732 4.09212C34.8878 6.7297 37.7951 10.5891 39.8829 15.4182C40.039 15.7867 40.039 16.2133 39.8829 16.5624C35.7073 26.2206 28.2732 32 20 32H19.9805C11.7268 32 4.29268 26.2206 0.117073 16.5624C-0.0390244 16.2133 -0.0390244 15.7867 0.117073 15.4182C4.29268 5.76 11.7268 0 19.9805 0H20ZM20 8.24242C15.6878 8.24242 12.1951 11.7139 12.1951 16C12.1951 20.2667 15.6878 23.7382 20 23.7382C24.2927 23.7382 27.7854 20.2667 27.7854 16C27.7854 11.7139 24.2927 8.24242 20 8.24242ZM20.0023 11.1472C22.6755 11.1472 24.8609 13.3194 24.8609 15.9957C24.8609 18.6527 22.6755 20.8248 20.0023 20.8248C17.3097 20.8248 15.1243 18.6527 15.1243 15.9957C15.1243 15.666 15.1633 15.3557 15.2219 15.0454H15.3194C17.4853 15.0454 19.2414 13.3388 19.3194 11.2054C19.534 11.1666 19.7682 11.1472 20.0023 11.1472Z" fill="black"/>
</svg>
