<svg width="48" height="27" viewBox="0 0 48 27" fill="none" xmlns="http://www.w3.org/2000/svg">
<path d="M48 13.5C47.9995 17.0789 46.564 20.5112 44.0091 23.0426C41.4542 25.574 37.9888 26.9974 34.3746 27H13.6334C10.0176 27 6.5499 25.5777 3.99314 23.0459C1.43638 20.5142 0 17.0804 0 13.5C0 9.91958 1.43638 6.4858 3.99314 3.95406C6.5499 1.42232 10.0176 0 13.6334 0H34.3646C37.9788 0.000523956 41.445 1.42192 44.0014 3.95184C46.5579 6.48175 47.9953 9.91319 47.998 13.4921L48 13.5ZM34.3666 4.49934C33.1737 4.49934 31.9925 4.73199 30.8904 5.18402C29.7883 5.63605 28.787 6.29859 27.9435 7.13383C27.1 7.96907 26.4309 8.96064 25.9744 10.0519C25.5179 11.1432 25.2829 12.3129 25.2829 13.4941C25.2829 14.6753 25.5179 15.8449 25.9744 16.9362C26.4309 18.0275 27.1 19.019 27.9435 19.8543C28.787 20.6895 29.7883 21.3521 30.8904 21.8041C31.9925 22.2561 33.1737 22.4888 34.3666 22.4888C35.5594 22.489 36.7407 22.2566 37.8429 21.8049C38.945 21.3531 39.9466 20.6907 40.7902 19.8557C41.6339 19.0206 42.3032 18.0292 42.76 16.938C43.2167 15.8468 43.4519 14.6772 43.4522 13.496C43.4524 12.3148 43.2178 11.1451 42.7615 10.0538C42.3053 8.96237 41.6364 7.97065 40.7931 7.13523C39.9498 6.29981 38.9485 5.63705 37.8466 5.18478C36.7446 4.73251 35.5634 4.4996 34.3706 4.49934H34.3666Z" fill="#3468FC"/>
</svg>
