<svg width="44" height="36" viewBox="0 0 44 36" fill="none" xmlns="http://www.w3.org/2000/svg">
<path d="M42.478 18.0825C43.318 18.0825 44 18.7512 44 19.5769C44 20.4006 43.318 21.0674 42.478 21.0674H40.354V28.1866C40.354 32.4973 36.78 36 32.388 36H29.202C28.36 36 27.678 35.3312 27.678 34.5056C27.678 33.6819 28.36 33.0131 29.202 33.0131H32.388C35.102 33.0131 37.31 30.8499 37.31 28.1866V21.0674H32.064V23.0502C32.084 25.5311 30.054 27.559 27.524 27.5825H16.476C13.948 27.559 11.918 25.5311 11.938 23.0502V21.0674H6.692V28.1944C6.692 30.8479 8.894 33.0072 11.6 33.0111L14.856 33.0131C15.696 33.0131 16.378 33.6819 16.378 34.5056C16.376 35.3312 15.696 36 14.854 36L11.596 35.998C7.214 35.9941 3.646 32.4934 3.646 28.1944V21.0674H1.524C0.684 21.0674 0 20.4006 0 19.5769C0 18.7512 0.684 18.0825 1.524 18.0825H42.478ZM27.525 7.48532C28.735 7.48532 29.897 7.96189 30.743 8.81109C31.595 9.66813 32.067 10.8194 32.065 12.0177V14.5084C32.055 14.8006 31.817 15.0379 31.519 15.0457H12.479C12.183 15.0359 11.945 14.7986 11.9388 14.5084V12.0177C11.917 9.53673 13.949 7.51081 16.477 7.48532H27.525ZM32.3872 0.00058836C36.7812 0.00058836 40.3532 3.50329 40.3532 7.81205V11.5246C40.3532 12.3483 39.6732 13.019 38.8312 13.019C37.9912 13.019 37.3092 12.3483 37.3092 11.5246V7.81205C37.3092 5.1507 35.1012 2.98554 32.3872 2.98554H29.2012C28.3612 2.98554 27.6792 2.31873 27.6792 1.49502C27.6792 0.669358 28.3612 0.00058836 29.2012 0.00058836H32.3872ZM14.8554 0C15.6954 0 16.3774 0.668769 16.3774 1.49444C16.3774 2.31814 15.6974 2.98691 14.8554 2.98691L11.5974 2.98887C8.8934 2.99279 6.6934 5.15207 6.6934 7.80558V11.524C6.6934 12.3477 6.0094 13.0185 5.1694 13.0185C4.3294 13.0185 3.6474 12.3477 3.6474 11.524V7.80558C3.6474 3.50663 7.2134 0.0058836 11.5954 0.0019612L14.8554 0Z" fill="black"/>
</svg>
