<svg width="48" height="27" viewBox="0 0 48 27" fill="none" xmlns="http://www.w3.org/2000/svg">
<path d="M0 13.5C0.000529134 9.92111 1.43598 6.48884 3.9909 3.95744C6.54582 1.42604 10.0112 0.00262455 13.6254 0H34.3666C37.9824 0 41.4501 1.42232 44.0069 3.95406C46.5636 6.4858 48 9.91958 48 13.5C48 17.0804 46.5636 20.5142 44.0069 23.0459C41.4501 25.5777 37.9824 27 34.3666 27H13.6354C10.0212 26.9995 6.55497 25.5781 3.99855 23.0482C1.44213 20.5182 0.00465041 17.0868 0.00199992 13.5079L0 13.5ZM13.6334 22.4967C14.8378 22.514 16.0336 22.294 17.1513 21.8495C18.269 21.405 19.2863 20.7449 20.144 19.9075C21.0017 19.0701 21.6827 18.0722 22.1474 16.9719C22.6121 15.8715 22.8512 14.6907 22.8508 13.498C22.8504 12.3053 22.6105 11.1246 22.1451 10.0245C21.6797 8.92447 20.998 7.92703 20.1397 7.09023C19.2815 6.25343 18.2637 5.59396 17.1457 5.15019C16.0277 4.70642 14.8318 4.4872 13.6274 4.50528C11.2414 4.5406 8.96516 5.50403 7.29054 7.18742C5.61591 8.87081 4.67734 11.139 4.6776 13.502C4.67786 15.8649 5.61694 18.1329 7.29194 19.8159C8.96694 21.499 11.2434 22.4619 13.6294 22.4967H13.6354H13.6334Z" fill="black"/>
</svg>
