<svg width="40" height="40" viewBox="0 0 40 40" fill="none" xmlns="http://www.w3.org/2000/svg">
<path d="M28.68 0C35.46 0 40 4.76 40 11.84V28.18C40 35.24 35.46 40 28.68 40H11.34C4.56 40 0 35.24 0 28.18V11.84C0 4.76 4.56 0 11.34 0H28.68ZM28.96 17.602C27.64 17.602 26.56 18.68 26.56 20C26.56 21.32 27.64 22.4 28.96 22.4C30.28 22.4 31.34 21.32 31.34 20C31.34 18.68 30.28 17.602 28.96 17.602ZM20 17.602C18.68 17.602 17.6 18.68 17.6 20C17.6 21.32 18.68 22.4 20 22.4C21.32 22.4 22.4 21.32 22.4 20C22.4 18.68 21.32 17.602 20 17.602ZM11.04 17.602C9.72 17.602 8.64 18.68 8.64 20C8.64 21.32 9.72 22.4 11.04 22.4C12.36 22.4 13.44 21.32 13.44 20C13.44 18.68 12.36 17.602 11.04 17.602Z" fill="black"/>
</svg>
