<svg width="24" height="22" viewBox="0 0 24 22" fill="none" xmlns="http://www.w3.org/2000/svg">
<path d="M17.4187 0C21.5573 0 24 2.42561 24 6.57776H18.9227V6.62013C16.5663 6.62013 14.656 8.51704 14.656 10.857C14.656 13.197 16.5663 15.0939 18.9227 15.0939H24V15.4752C24 19.5744 21.5573 22 17.4187 22H6.58133C2.44267 22 0 19.5744 0 15.4752V6.5248C0 2.42561 2.44267 0 6.58133 0H17.4187ZM23.104 8.39962C23.5988 8.39962 24 8.79797 24 9.28936V12.3823C23.9942 12.8713 23.5964 13.2663 23.104 13.272H19.0187C17.8257 13.288 16.7826 12.4769 16.512 11.3231C16.3765 10.6068 16.5667 9.86769 17.0317 9.30382C17.4967 8.73995 18.1888 8.40898 18.9227 8.39962H23.104ZM19.4987 9.82956H19.104C18.8617 9.82673 18.6283 9.92034 18.456 10.0895C18.2836 10.2586 18.1867 10.4893 18.1867 10.7299C18.1866 11.2347 18.5957 11.6456 19.104 11.6514H19.4987C20.0053 11.6514 20.416 11.2436 20.416 10.7405C20.416 10.2374 20.0053 9.82956 19.4987 9.82956ZM12.4587 4.7559H5.68533C5.18284 4.75586 4.77384 5.15728 4.768 5.65623C4.768 6.16107 5.17698 6.57195 5.68533 6.57776H12.4587C12.9653 6.57776 13.376 6.16992 13.376 5.66683C13.376 5.16373 12.9653 4.7559 12.4587 4.7559Z" fill="black"/>
</svg>
